<svg width="1537" height="476" viewBox="0 0 1537 476" fill="none" xmlns="http://www.w3.org/2000/svg">
<g clip-path="url(#clip0_310_2)">
<path d="M23.5898 211.11C17.7998 210.81 10.7698 214.32 7.83979 204.28C5.56979 196.46 6.24979 191.51 13.9598 188.13C16.5898 186.98 19.4698 185.53 21.1898 183.37C23.6198 180.32 26.6598 176.46 26.5998 173C26.4898 167.13 27.3698 159.56 18.3298 157.92C15.5198 157.41 12.9398 155.61 10.1198 155.08C0.919794 153.34 -1.27021 148.21 0.629794 139.36C1.74979 134.17 3.62979 131.6 8.80979 131.18C11.9798 130.93 15.1098 129.78 18.2698 129.72C25.3598 129.59 28.9598 126.47 31.2698 119.46C33.5798 112.45 31.0798 108.46 26.0198 104.62C24.3998 103.4 22.9498 101.95 21.4298 100.62C13.5198 93.6197 13.1598 87.1297 20.7098 79.5397C22.4284 78.1399 24.6201 77.4558 26.8298 77.6297C30.2598 77.8997 33.6198 79.1197 37.0198 79.8997C47.6698 82.3297 54.3198 79.1697 58.2798 69.2897C59.0298 67.4097 58.6598 64.7097 57.9598 62.6797C56.7345 59.0885 55.1216 55.6415 53.1498 52.3997C49.3998 46.2997 49.4998 41.7897 55.6698 36.7197C61.5398 31.8997 65.9998 31.4497 71.4398 36.4997C73.5598 38.4997 76.4398 39.6597 78.4398 41.6697C83.7698 46.8697 88.5698 44.7697 94.1098 41.7797C99.6498 38.7897 101.32 34.7097 100.33 28.8997C99.9398 26.6097 99.9498 24.2597 99.6198 21.9597C98.6798 15.3097 99.4598 10.6197 107.49 8.15969C115.23 5.77969 119.66 7.33969 122.98 14.2697C124.11 16.6097 125.84 18.6597 127.13 20.9297C129.74 25.5797 132.81 28.7497 138.95 27.3797C145.09 26.0097 152.2 27.0797 153.61 18.2097C154.02 15.6797 155.35 13.2997 156.24 10.8397C160.16 -0.160312 164.01 -2.16031 175.09 1.95969C177.09 2.67969 178.89 5.31969 179.58 7.46969C180.835 11.3531 181.549 15.3912 181.7 19.4697C181.92 26.8697 185.86 29.7297 192.58 31.8397C199.3 33.9497 203 31.2497 206.58 26.5797C208 24.7397 209.87 23.2397 211.19 21.3397C215.32 15.4497 219.66 14.1397 226.66 17.7097C233.66 21.2797 235.36 25.3297 232.88 32.2197C232 34.6597 232.04 37.4597 231.03 39.8297C228 46.9997 232 50.7497 237 55.0897C242.27 59.6397 246.89 60.3797 252.61 56.7097C254.55 55.4597 256.97 54.9697 258.89 53.7097C265.34 49.4997 269.96 50.3797 275.22 56.5997C280.48 62.8197 278.72 67.1597 274.54 72.5297C269.34 79.2097 261.8 86.0497 270.46 95.0297C273.08 97.7497 277.21 99.4097 280.96 100.51C283.57 101.27 286.7 100.14 289.6 100.01C300.21 99.5297 304.25 103.01 304.6 113.8C304.68 115.97 303.19 118.73 301.54 120.27C299.04 122.62 295.76 124.14 292.82 126.02C287.99 129.13 282.82 131.42 283.94 139.24C285.06 147.06 286.66 153.39 295.72 154.81C297.72 155.12 299.52 156.28 301.48 156.81C307.65 158.43 311.43 160.72 310.67 168.74C309.91 176.76 307.19 180.39 299.46 180.84C296.57 181.01 293.72 181.9 290.83 182.03C284.11 182.33 281.73 186.29 279.9 192.29C278.07 198.29 279.02 202.29 283.9 205.88C286.01 207.42 287.71 209.52 289.82 211.04C295.91 215.41 297.3 219.98 293.58 227.3C289.86 234.62 284.89 234.64 278.58 232.77C269.73 230.17 261.4 227.77 255.24 238.44C252.58 243.05 251.34 246.52 254.01 251.14C255.32 253.39 256.01 256.07 257.46 258.14C263.27 266.31 260.58 272.4 252.59 276.42C249.84 277.8 245.68 277.74 242.59 276.8C239.5 275.86 236.66 273.18 234.03 270.9C228.83 266.4 224.17 265.69 217.57 269.31C210.71 273.07 209.79 277.92 210.72 284.42C211.01 286.42 211.07 288.48 211.42 290.49C212.42 296.64 211.32 300.9 204.31 303.09C197.3 305.28 192.01 306.09 188.55 298.22C187.39 295.59 185.22 293.4 184.05 290.76C180.89 283.62 175.14 283.84 168.7 284.38C162.26 284.92 158.47 287.65 157.11 294C156.56 296.53 154.95 298.86 154.55 301.4C153.17 310.28 147.55 310.89 139.97 310.48C131.58 310.03 131.22 304.63 130.42 298.66C129.28 290.14 129.54 280.21 117.24 279.79C113.7 279.67 109.81 281.14 106.6 282.86C104.19 284.15 102.6 286.97 100.6 289.14C92.4998 298.14 91.1798 298.56 81.1598 291.53C79.0098 290.02 77.7798 286.14 77.5398 283.23C77.2998 280.32 78.5398 276.96 79.5398 273.92C81.7198 266.92 81.0498 261.85 74.4698 256.62C67.8898 251.39 62.6998 252 56.4598 255.79C54.7298 256.79 52.5998 257.26 50.9498 258.4C44.8898 262.59 40.7998 260.84 36.2698 255.4C31.7398 249.96 30.3298 245.73 35.6098 240.4C36.568 239.303 37.4154 238.113 38.1398 236.85C41.8198 231.28 47.8698 226.74 42.1398 218.5C36.8198 211 37.4698 210.49 23.5898 211.11ZM219.76 156.86C219.93 121.86 192.5 93.8597 157.87 93.7197C123.24 93.5797 95.2198 120.91 94.9998 155C94.7198 190.15 122 218.33 156.45 218.56C191.5 218.75 219.59 191.41 219.76 156.86Z" fill="#C43638"/>
<path d="M1264.59 107L1294.59 64.3896L1319.15 76.3896C1306.62 93.7996 1288.85 102.65 1271.07 112.97C1273.54 116.13 1275.61 118.81 1277.7 121.47C1308.2 160.18 1308.04 218.61 1276.78 256.59C1258.08 279.32 1233.1 290.89 1204.17 293.72C1167.83 297.28 1133.57 291.97 1106.34 265.03C1073.84 232.87 1066.86 193.6 1081.15 151.65C1095.15 110.65 1125.64 87.4097 1168.95 82.0797C1203.07 77.9197 1235 83.6296 1264.59 107ZM1187.4 285.25C1207.84 285.25 1220.29 279.76 1232.2 264.47C1237.22 258.084 1241.4 251.076 1244.63 243.62C1255.4 218.3 1256.72 191.86 1252.19 164.98C1248.35 142.15 1240.29 121.26 1223.19 104.83C1202.63 85.0297 1171.32 85.3996 1150.99 105.43C1129.8 126.32 1122.57 152.94 1120.69 181.34C1118.87 208.87 1123.37 235.34 1139.38 258.63C1151.12 275.66 1166.8 286.13 1187.4 285.25Z" fill="white"/>
<path d="M1086.56 365.7C1082.38 354.35 1076.85 344.7 1075.5 334.52C1072.5 312.24 1085.87 297.31 1102.56 285.32C1104.96 283.6 1110.31 285.97 1114 286.42C1114.14 288.5 1114.42 289.2 1114.19 289.58C1103.19 307.53 1113.19 321.77 1132.74 323.88C1137.35 324.431 1141.99 324.738 1146.64 324.8C1176.9 324.88 1207.16 324.4 1237.41 325.07C1249 325.398 1260.51 327.018 1271.74 329.9C1321.13 342.34 1323.52 397.28 1305.14 423.73C1294.68 438.79 1280.55 449.33 1264.27 456.8C1216.63 478.67 1167.27 481.04 1117.2 467.14C1094.31 460.79 1075.79 448.09 1070.98 422.45C1067.57 404.28 1070.29 387.14 1081.66 371.97C1083.73 369.21 1085.91 366.53 1086.56 365.7ZM1095.74 367.99C1067.58 396.09 1075.91 438.6 1111.74 453.9C1128.59 461.09 1146.47 462.82 1164.56 463.27C1199.43 464.13 1233.12 459.5 1262.96 439.93C1270.45 435 1276.83 428.571 1281.71 421.05C1292.35 404.23 1284.57 386.86 1265.18 382.22C1259.81 380.992 1254.31 380.384 1248.8 380.41C1215.66 380.25 1182.52 380.05 1149.38 380.41C1130.53 380.65 1112.21 379.33 1095.74 368V367.99Z" fill="white"/>
<path d="M1043.72 185.45C1046.39 235.5 1008.41 283.08 948.01 291.11C908.52 296.36 873.53 285.8 845.37 257.01C797.53 208.11 808.52 106.75 898 84.1901C924.063 77.4283 951.574 78.8244 976.82 88.1901C1017.41 103 1045.86 141.3 1043.72 185.45ZM861.72 184.74C863.11 213.19 869.19 241.58 889.72 264.79C912.2 290.17 944.8 290.99 968.72 267.22C1006.04 230.16 1010.33 151.62 977.28 110.69C951.71 79.0301 910.6 78.9501 885.28 110.77C868.45 131.91 862.92 156.91 861.72 184.74Z" fill="white"/>
<path d="M338.24 396.6C339.13 407.27 334.83 412.31 323.84 412.7C322.02 412.77 319.62 411.11 318.36 409.55C315.63 406.17 313.48 402.33 311.06 398.7C303.89 387.94 292.06 387.14 283.69 396.83C282.16 398.59 280.69 400.37 279.14 402.13C271.93 410.52 265.97 411.01 257.63 403.43C256.28 402.19 255.63 399.43 255.77 397.48C256.1 393.48 257.23 389.48 258 385.48C260.72 371.2 253.06 362.66 238.77 364C236.77 364.19 234.71 364.33 232.68 364.44C222.53 364.99 216.34 359.34 216.82 349.44C216.91 347.58 218.82 345.44 220.47 344.11C223.88 341.41 227.69 339.23 231.31 336.79C241.37 330.04 242.18 317.79 233.11 309.91C231.35 308.38 229.56 306.91 227.78 305.39C218.87 297.85 218.33 293 226.08 284C227.42 282.44 230.56 281.63 232.78 281.78C236.78 282.07 240.73 283.37 244.72 284.19C257.54 286.82 267.59 277.75 266.24 264.76C266.03 262.76 265.69 260.76 265.51 258.7C264.6 248.37 269.81 242.63 280.35 242.93C282.25 242.98 284.59 244.58 285.87 246.16C288.6 249.54 290.74 253.38 293.16 257.01C299.65 266.73 312.6 267.7 320.25 259.01C321.79 257.27 323.25 255.47 324.78 253.7C331.99 245.3 338.69 244.7 346.39 252.38C347.87 253.86 348.34 257.07 348.13 259.38C347.75 263.69 346.51 267.93 345.64 272.2C343.64 282.09 351.85 291.84 362.04 291.61C364.66 291.56 367.28 291.37 369.88 291.13C382.53 289.99 382.32 290.04 386.05 302.13C387.54 306.96 386.32 309.85 382.12 312.19C378.83 314.04 375.73 316.19 372.58 318.33C370.422 319.726 368.617 321.603 367.304 323.812C365.992 326.022 365.208 328.506 365.014 331.069C364.821 333.631 365.222 336.204 366.188 338.586C367.153 340.968 368.657 343.095 370.58 344.8C372.654 346.841 374.859 348.745 377.18 350.5C383.03 354.5 384.69 358.63 381.24 365.83C377.66 373.28 373.3 374.53 366.1 372.53C358.48 371.08 350.16 368.38 343.35 376.14C335.26 382.4 338.1 394.86 338.24 396.6ZM329.24 327.6C329.17 312.86 316.36 300.34 301.69 300.67C287.02 301 275.08 313.27 275.13 327.67C275.228 334.873 278.173 341.746 283.322 346.784C288.471 351.823 295.406 354.618 302.61 354.56C317 354.25 329.3 341.83 329.23 327.56L329.24 327.6Z" fill="white"/>
<path d="M1486.62 95.5098H1357C1356.79 92.2798 1356.62 89.5098 1356.41 86.2798H1536.87L1400.64 277.61H1530.23C1530.46 281.09 1530.64 283.8 1530.86 287.08H1346.24L1486.62 95.5098Z" fill="white"/>
<path d="M786.34 251.6C788.22 253.79 790.06 255.93 791.84 258.02C765 292.57 694.43 308 646.33 268.3C600.82 230.78 595.92 159.84 635.87 115.38C674 72.9997 749.06 67.4797 786.59 104.77L780.94 111C781.12 110.17 781.31 109.34 781.49 108.51C767.68 102.95 754.14 96.5097 739.96 92.0897C726.58 87.9997 713.41 91.9997 701.27 98.2597C639.16 130.46 632.56 227.16 689.62 267.61C711.92 283.42 739.3 284.33 762.39 269.5C770.18 264.5 777.27 258.43 786.34 251.6Z" fill="white"/>
<path d="M536.27 86.0498H570.74V287.13H536.27V86.0498Z" fill="white"/>
<path d="M530.23 24.8899C530.3 11.0499 540 1.65991 554 1.78991C567.1 1.89991 577 11.9299 577 25.0699C577.038 28.1239 576.468 31.155 575.323 33.9863C574.177 36.8176 572.479 39.3924 570.328 41.5604C568.177 43.7285 565.615 45.4463 562.793 46.6137C559.971 47.7812 556.944 48.3748 553.89 48.3599C540.13 48.4299 530.16 38.5199 530.23 24.8899Z" fill="white"/>
<path d="M451.49 483C452.025 483 452.46 356.592 452.46 200.66C452.46 44.7277 452.025 -81.6802 451.49 -81.6802C450.954 -81.6802 450.52 44.7277 450.52 200.66C450.52 356.592 450.954 483 451.49 483Z" fill="white"/>
</g>
<defs>
<clipPath id="clip0_310_2">
<rect width="1536.83" height="475.81" fill="white"/>
</clipPath>
</defs>
</svg>
